<svg viewBox="0 0 60 60" fill="none" xmlns="http://www.w3.org/2000/svg">
    <path
        d="M30 55C24.2083 53.5417 19.4267 50.2183 15.655 45.03C11.8833 39.8417 9.99833 34.0817 10 27.75V12.5L30 5L50 12.5V27.75C50 34.0833 48.115 39.8442 44.345 45.0325C40.575 50.2208 35.7933 53.5433 30 55ZM30 49.75C34.3333 48.375 37.9167 45.625 40.75 41.5C43.5833 37.375 45 32.7917 45 27.75V15.9375L30 10.3125L15 15.9375V27.75C15 32.7917 16.4167 37.375 19.25 41.5C22.0833 45.625 25.6667 48.375 30 49.75Z"
        fill="#1B3A57" />
    <path opacity="0.3" fill-rule="evenodd" clip-rule="evenodd"
        d="M30.0002 21.6667V27.0833C30.0002 27.4148 30.1319 27.7328 30.3663 27.9672C30.6007 28.2016 30.9186 28.3333 31.2502 28.3333H36.6668V36.6667C36.6668 37.1087 36.4912 37.5326 36.1787 37.8452C35.8661 38.1577 35.4422 38.3333 35.0002 38.3333H25.0002C24.5581 38.3333 24.1342 38.1577 23.8217 37.8452C23.5091 37.5326 23.3335 37.1087 23.3335 36.6667V23.3333C23.3335 22.8913 23.5091 22.4674 23.8217 22.1548C24.1342 21.8423 24.5581 21.6667 25.0002 21.6667H30.0002Z"
        fill="#2ECC71" />
    <path fill-rule="evenodd" clip-rule="evenodd"
        d="M31.6665 21.7025C31.9824 21.7692 32.2715 21.9267 32.4999 22.155L36.1782 25.8333C36.4065 26.0617 36.564 26.3508 36.6307 26.6667H31.6665V21.7025ZM29.7115 29.7492L28.9665 31.0283L27.519 31.3417C27.462 31.354 27.4093 31.3812 27.366 31.4203C27.3227 31.4595 27.2905 31.5093 27.2725 31.5648C27.2546 31.6203 27.2515 31.6795 27.2636 31.7366C27.2757 31.7937 27.3026 31.8466 27.3415 31.89L28.3282 32.9942L28.1782 34.4675C28.1723 34.5256 28.1818 34.5842 28.2057 34.6374C28.2295 34.6907 28.2669 34.7367 28.3142 34.771C28.3614 34.8052 28.4168 34.8265 28.4749 34.8326C28.5329 34.8387 28.5915 34.8295 28.6449 34.8058L29.9999 34.2092L31.3549 34.8058C31.4082 34.8295 31.4668 34.8387 31.5249 34.8326C31.5829 34.8265 31.6383 34.8052 31.6856 34.771C31.7328 34.7367 31.7702 34.6907 31.7941 34.6374C31.818 34.5842 31.8274 34.5256 31.8215 34.4675L31.6715 32.9942L32.6582 31.89C32.6972 31.8466 32.724 31.7937 32.7361 31.7366C32.7483 31.6795 32.7452 31.6203 32.7272 31.5648C32.7092 31.5093 32.677 31.4595 32.6338 31.4203C32.5905 31.3812 32.5377 31.354 32.4807 31.3417L31.0332 31.0283L30.2882 29.7492C30.2589 29.6987 30.2168 29.6567 30.1662 29.6276C30.1156 29.5984 30.0583 29.5831 29.9999 29.5831C29.9415 29.5831 29.8841 29.5984 29.8335 29.6276C29.7829 29.6567 29.7408 29.6987 29.7115 29.7492Z"
        fill="#2ECC71" />
</svg>
    