<svg viewBox="0 0 152 60" fill="none" xmlns="http://www.w3.org/2000/svg">
    <path
        d="M30 55C24.2083 53.5417 19.4267 50.2183 15.655 45.03C11.8833 39.8417 9.99833 34.0817 10 27.75V12.5L30 5L50 12.5V27.75C50 34.0833 48.115 39.8442 44.345 45.0325C40.575 50.2208 35.7933 53.5433 30 55ZM30 49.75C34.3333 48.375 37.9167 45.625 40.75 41.5C43.5833 37.375 45 32.7917 45 27.75V15.9375L30 10.3125L15 15.9375V27.75C15 32.7917 16.4167 37.375 19.25 41.5C22.0833 45.625 25.6667 48.375 30 49.75Z"
        fill="#1B3A57" />
    <path opacity="0.3" fill-rule="evenodd" clip-rule="evenodd"
        d="M30.0002 21.6667V27.0833C30.0002 27.4148 30.1319 27.7328 30.3663 27.9672C30.6007 28.2016 30.9186 28.3333 31.2502 28.3333H36.6668V36.6667C36.6668 37.1087 36.4912 37.5326 36.1787 37.8452C35.8661 38.1577 35.4422 38.3333 35.0002 38.3333H25.0002C24.5581 38.3333 24.1342 38.1577 23.8217 37.8452C23.5091 37.5326 23.3335 37.1087 23.3335 36.6667V23.3333C23.3335 22.8913 23.5091 22.4674 23.8217 22.1548C24.1342 21.8423 24.5581 21.6667 25.0002 21.6667H30.0002Z"
        fill="#2ECC71" />
    <path fill-rule="evenodd" clip-rule="evenodd"
        d="M31.6665 21.7025C31.9824 21.7692 32.2715 21.9267 32.4999 22.155L36.1782 25.8333C36.4065 26.0617 36.564 26.3508 36.6307 26.6667H31.6665V21.7025ZM29.7115 29.7492L28.9665 31.0283L27.519 31.3417C27.462 31.354 27.4093 31.3812 27.366 31.4203C27.3227 31.4595 27.2905 31.5093 27.2725 31.5648C27.2546 31.6203 27.2515 31.6795 27.2636 31.7366C27.2757 31.7937 27.3026 31.8466 27.3415 31.89L28.3282 32.9942L28.1782 34.4675C28.1723 34.5256 28.1818 34.5842 28.2057 34.6374C28.2295 34.6907 28.2669 34.7367 28.3142 34.771C28.3614 34.8052 28.4168 34.8265 28.4749 34.8326C28.5329 34.8387 28.5915 34.8295 28.6449 34.8058L29.9999 34.2092L31.3549 34.8058C31.4082 34.8295 31.4668 34.8387 31.5249 34.8326C31.5829 34.8265 31.6383 34.8052 31.6856 34.771C31.7328 34.7367 31.7702 34.6907 31.7941 34.6374C31.818 34.5842 31.8274 34.5256 31.8215 34.4675L31.6715 32.9942L32.6582 31.89C32.6972 31.8466 32.724 31.7937 32.7361 31.7366C32.7483 31.6795 32.7452 31.6203 32.7272 31.5648C32.7092 31.5093 32.677 31.4595 32.6338 31.4203C32.5905 31.3812 32.5377 31.354 32.4807 31.3417L31.0332 31.0283L30.2882 29.7492C30.2589 29.6987 30.2168 29.6567 30.1662 29.6276C30.1156 29.5984 30.0583 29.5831 29.9999 29.5831C29.9415 29.5831 29.8841 29.5984 29.8335 29.6276C29.7829 29.6567 29.7408 29.6987 29.7115 29.7492Z"
        fill="#2ECC71" />
    <path
        d="M67.256 42L61.592 34.56V42H57.488V25.152H61.592V32.544L67.208 25.152H72.032L65.504 33.408L72.272 42H67.256ZM73.4064 35.28C73.4064 33.904 73.6624 32.696 74.1744 31.656C74.7024 30.616 75.4144 29.816 76.3104 29.256C77.2064 28.696 78.2064 28.416 79.3104 28.416C80.2544 28.416 81.0784 28.608 81.7824 28.992C82.5024 29.376 83.0544 29.88 83.4384 30.504V28.608H87.5424V42H83.4384V40.104C83.0384 40.728 82.4784 41.232 81.7584 41.616C81.0544 42 80.2304 42.192 79.2864 42.192C78.1984 42.192 77.2064 41.912 76.3104 41.352C75.4144 40.776 74.7024 39.968 74.1744 38.928C73.6624 37.872 73.4064 36.656 73.4064 35.28ZM83.4384 35.304C83.4384 34.28 83.1504 33.472 82.5744 32.88C82.0144 32.288 81.3264 31.992 80.5104 31.992C79.6944 31.992 78.9984 32.288 78.4224 32.88C77.8624 33.456 77.5824 34.256 77.5824 35.28C77.5824 36.304 77.8624 37.12 78.4224 37.728C78.9984 38.32 79.6944 38.616 80.5104 38.616C81.3264 38.616 82.0144 38.32 82.5744 37.728C83.1504 37.136 83.4384 36.328 83.4384 35.304ZM96.5354 38.16L99.4394 28.608H103.807L99.0554 42H93.9914L89.2394 28.608H93.6314L96.5354 38.16ZM104.719 35.28C104.719 33.904 104.975 32.696 105.487 31.656C106.015 30.616 106.727 29.816 107.623 29.256C108.519 28.696 109.519 28.416 110.623 28.416C111.567 28.416 112.391 28.608 113.095 28.992C113.815 29.376 114.367 29.88 114.751 30.504V28.608H118.855V42H114.751V40.104C114.351 40.728 113.791 41.232 113.071 41.616C112.367 42 111.543 42.192 110.599 42.192C109.511 42.192 108.519 41.912 107.623 41.352C106.727 40.776 106.015 39.968 105.487 38.928C104.975 37.872 104.719 36.656 104.719 35.28ZM114.751 35.304C114.751 34.28 114.463 33.472 113.887 32.88C113.327 32.288 112.639 31.992 111.823 31.992C111.007 31.992 110.311 32.288 109.735 32.88C109.175 33.456 108.895 34.256 108.895 35.28C108.895 36.304 109.175 37.12 109.735 37.728C110.311 38.32 111.007 38.616 111.823 38.616C112.639 38.616 113.327 38.32 113.887 37.728C114.463 37.136 114.751 36.328 114.751 35.304ZM121.008 35.304C121.008 33.912 121.288 32.696 121.848 31.656C122.424 30.616 123.216 29.816 124.224 29.256C125.248 28.696 126.416 28.416 127.728 28.416C129.408 28.416 130.808 28.856 131.928 29.736C133.064 30.616 133.808 31.856 134.16 33.456H129.792C129.424 32.432 128.712 31.92 127.656 31.92C126.904 31.92 126.304 32.216 125.856 32.808C125.408 33.384 125.184 34.216 125.184 35.304C125.184 36.392 125.408 37.232 125.856 37.824C126.304 38.4 126.904 38.688 127.656 38.688C128.712 38.688 129.424 38.176 129.792 37.152H134.16C133.808 38.72 133.064 39.952 131.928 40.848C130.792 41.744 129.392 42.192 127.728 42.192C126.416 42.192 125.248 41.912 124.224 41.352C123.216 40.792 122.424 39.992 121.848 38.952C121.288 37.912 121.008 36.696 121.008 35.304ZM144.587 28.464C146.123 28.464 147.355 28.976 148.283 30C149.211 31.008 149.675 32.4 149.675 34.176V42H145.595V34.728C145.595 33.832 145.363 33.136 144.899 32.64C144.435 32.144 143.811 31.896 143.027 31.896C142.243 31.896 141.619 32.144 141.155 32.64C140.691 33.136 140.459 33.832 140.459 34.728V42H136.355V24.24H140.459V30.408C140.875 29.816 141.443 29.344 142.163 28.992C142.883 28.64 143.691 28.464 144.587 28.464Z"
        fill="black" />
</svg>
    